<?xml version="1.0" encoding="UTF-8"?>
<!-- Generator: https://ezgif.com/png-to-svg -->
<svg version="1.1" xmlns="http://www.w3.org/2000/svg" width="512" height="512">
<path d="M0 0 C1.79 -0 3.57 -0.01 5.36 -0.02 C10.25 -0.03 15.15 -0.03 20.04 -0.02 C25.33 -0.01 30.61 -0.03 35.9 -0.04 C46.24 -0.05 56.59 -0.06 66.94 -0.05 C75.35 -0.05 83.76 -0.05 92.17 -0.05 C93.97 -0.05 93.97 -0.05 95.8 -0.05 C98.23 -0.06 100.67 -0.06 103.1 -0.06 C125.91 -0.07 148.72 -0.07 171.53 -0.06 C192.39 -0.05 213.25 -0.06 234.11 -0.08 C255.54 -0.11 276.97 -0.12 298.39 -0.11 C310.42 -0.11 322.45 -0.11 334.48 -0.13 C344.71 -0.14 354.95 -0.14 365.19 -0.12 C370.41 -0.12 375.64 -0.11 380.86 -0.13 C385.64 -0.14 390.43 -0.14 395.21 -0.12 C396.94 -0.12 398.67 -0.12 400.39 -0.13 C411.34 -0.19 421.92 -0.08 430.49 7.64 C438.4 16.49 438.7 25.76 438.67 37.16 C438.67 38.95 438.67 38.95 438.68 40.77 C438.68 44.08 438.67 47.38 438.67 50.69 C438.67 54.25 438.67 57.82 438.67 61.39 C438.67 67.56 438.66 73.74 438.66 79.91 C438.65 88.84 438.65 97.77 438.65 106.7 C438.64 121.19 438.64 135.68 438.63 150.17 C438.62 164.24 438.61 178.32 438.61 192.39 C438.61 193.69 438.61 193.69 438.61 195.02 C438.61 199.37 438.6 203.72 438.6 208.08 C438.59 244.18 438.58 280.28 438.55 316.39 C439.16 316.25 439.77 316.11 440.4 315.96 C441.2 315.78 442 315.6 442.83 315.41 C444.02 315.13 444.02 315.13 445.24 314.86 C451.61 313.57 456.87 314.4 462.55 317.39 C467.47 320.71 470.17 323.89 472.55 329.39 C473.91 339.43 471.61 348.82 468.92 358.42 C468.52 359.87 468.13 361.32 467.74 362.77 C466.69 366.67 465.62 370.56 464.54 374.46 C463.4 378.56 462.29 382.67 461.17 386.78 C459.77 391.94 458.36 397.11 456.95 402.27 C453.71 414.07 450.54 425.89 447.42 437.73 C445.99 443.11 444.56 448.49 443.13 453.88 C441.98 458.21 440.83 462.54 439.69 466.88 C438.62 470.95 437.53 475.03 436.44 479.1 C436.04 480.6 435.65 482.09 435.26 483.59 C434.72 485.64 434.17 487.69 433.62 489.74 C433.31 490.88 433.01 492.03 432.7 493.21 C430.34 499.75 426.24 504.53 420.55 508.39 C412.78 511.44 406.72 510.73 399.08 507.95 C392.96 504.17 389.42 497.88 386.28 491.59 C385.92 490.88 385.55 490.16 385.17 489.42 C384.02 487.17 382.88 484.9 381.74 482.64 C380.96 481.1 380.18 479.57 379.39 478.04 C378.65 476.58 377.9 475.12 377.16 473.65 C376.64 472.63 376.64 472.63 376.1 471.58 C374.74 468.87 373.51 466.27 372.55 463.39 C371.73 463.39 370.9 463.39 370.04 463.39 C320.99 463.51 271.93 463.59 222.87 463.64 C216.98 463.65 211.09 463.66 205.19 463.66 C204.02 463.66 202.85 463.66 201.64 463.67 C182.65 463.69 163.66 463.73 144.68 463.77 C125.19 463.82 105.71 463.85 86.22 463.86 C74.2 463.86 62.18 463.89 50.16 463.93 C41.91 463.95 33.67 463.96 25.42 463.96 C20.67 463.95 15.91 463.96 11.15 463.98 C6.8 464.01 2.44 464.01 -1.92 463.99 C-3.49 463.99 -5.07 464 -6.64 464.01 C-16.4 464.1 -24.86 463.55 -32.35 456.63 C-37.81 450.88 -39.82 444.77 -39.83 436.93 C-39.83 436.21 -39.84 435.49 -39.84 434.74 C-39.85 432.33 -39.84 429.92 -39.83 427.51 C-39.84 425.76 -39.84 424.01 -39.85 422.26 C-39.87 417.46 -39.86 412.66 -39.85 407.86 C-39.85 402.68 -39.86 397.5 -39.87 392.32 C-39.89 382.18 -39.89 372.03 -39.88 361.89 C-39.88 353.64 -39.88 345.39 -39.89 337.15 C-39.89 335.98 -39.89 334.8 -39.89 333.59 C-39.89 331.21 -39.89 328.83 -39.89 326.44 C-39.91 304.09 -39.9 281.73 -39.89 259.38 C-39.88 238.92 -39.89 218.47 -39.92 198.02 C-39.94 177.02 -39.95 156.02 -39.94 135.02 C-39.94 123.23 -39.94 111.44 -39.96 99.65 C-39.98 89.61 -39.98 79.57 -39.96 69.54 C-39.95 64.42 -39.95 59.29 -39.96 54.17 C-39.98 49.48 -39.97 44.8 -39.95 40.11 C-39.95 38.41 -39.95 36.72 -39.96 35.02 C-40.02 25.17 -39.87 16.85 -33.4 8.86 C-32.7 8.25 -31.99 7.64 -31.26 7.01 C-30.56 6.39 -29.87 5.76 -29.15 5.11 C-20.08 -0.67 -10.32 -0.04 0 0 Z " fill="#F1EAEC" transform="translate(39.446624755859375,0.6123199462890625)"/>
<path d="M0 0 C1.84 -0.01 1.84 -0.01 3.72 -0.02 C5.09 -0.02 6.46 -0.02 7.82 -0.01 C9.27 -0.02 10.72 -0.02 12.17 -0.03 C16.16 -0.04 20.15 -0.05 24.14 -0.05 C28.44 -0.05 32.74 -0.06 37.04 -0.07 C46.44 -0.09 55.85 -0.1 65.25 -0.11 C71.13 -0.11 77 -0.12 82.87 -0.12 C99.12 -0.14 115.38 -0.16 131.63 -0.16 C132.67 -0.16 133.71 -0.16 134.79 -0.16 C136.89 -0.16 139 -0.16 141.11 -0.16 C142.16 -0.17 143.21 -0.17 144.29 -0.17 C145.86 -0.17 145.86 -0.17 147.46 -0.17 C164.45 -0.17 181.44 -0.2 198.43 -0.23 C215.87 -0.27 233.3 -0.29 250.74 -0.29 C260.54 -0.29 270.33 -0.3 280.12 -0.33 C288.46 -0.35 296.8 -0.36 305.13 -0.35 C309.39 -0.34 313.64 -0.34 317.9 -0.36 C321.79 -0.38 325.69 -0.38 329.58 -0.36 C330.99 -0.36 332.4 -0.36 333.81 -0.38 C341.79 -0.45 347.9 -0.23 354.03 5.26 C357.7 9.22 360.28 12.87 360.29 18.35 C360.3 19.57 360.3 19.57 360.31 20.81 C360.31 21.7 360.31 22.58 360.31 23.49 C360.31 24.44 360.32 25.39 360.32 26.36 C360.34 29.53 360.34 32.71 360.34 35.88 C360.35 38.16 360.36 40.43 360.36 42.7 C360.39 48.89 360.4 55.07 360.4 61.25 C360.4 65.11 360.41 68.97 360.42 72.83 C360.44 83.53 360.45 94.23 360.46 104.92 C360.46 105.61 360.46 106.29 360.46 106.99 C360.46 108.38 360.46 109.77 360.46 111.16 C360.46 111.85 360.46 112.53 360.46 113.24 C360.46 114.28 360.46 114.28 360.46 115.33 C360.46 126.5 360.49 137.67 360.53 148.84 C360.56 160.31 360.58 171.78 360.58 183.25 C360.59 189.69 360.59 196.13 360.62 202.57 C360.65 208.63 360.65 214.69 360.63 220.74 C360.63 222.97 360.64 225.19 360.66 227.41 C360.68 230.45 360.67 233.48 360.65 236.52 C360.66 237.39 360.67 238.27 360.69 239.17 C360.6 245.33 358.98 249.5 355.03 254.26 C349.47 258.76 344 260.51 336.9 260.52 C335.68 260.52 334.47 260.53 333.21 260.54 C331.87 260.53 330.53 260.53 329.19 260.53 C327.76 260.53 326.33 260.54 324.9 260.54 C320.97 260.55 317.04 260.55 313.12 260.55 C308.88 260.55 304.64 260.56 300.41 260.57 C292.11 260.59 283.81 260.59 275.51 260.59 C268.76 260.6 262.01 260.6 255.27 260.61 C236.14 260.62 217.02 260.63 197.89 260.63 C196.34 260.63 196.34 260.63 194.77 260.63 C193.73 260.63 192.7 260.63 191.64 260.63 C174.9 260.63 158.17 260.65 141.44 260.68 C124.26 260.71 107.08 260.72 89.9 260.72 C80.25 260.72 70.6 260.72 60.96 260.74 C52.75 260.76 44.53 260.77 36.32 260.75 C32.13 260.75 27.94 260.75 23.76 260.76 C19.92 260.78 16.08 260.78 12.24 260.76 C10.86 260.76 9.47 260.76 8.09 260.77 C-0.68 260.84 -7.13 260.44 -13.99 254.51 C-14.44 253.96 -14.88 253.4 -15.34 252.82 C-15.8 252.27 -16.27 251.71 -16.74 251.14 C-20.19 245.85 -20.26 241.11 -20.24 234.98 C-20.25 233.57 -20.25 233.57 -20.26 232.14 C-20.27 228.99 -20.27 225.85 -20.27 222.71 C-20.28 220.45 -20.29 218.2 -20.3 215.94 C-20.32 209.82 -20.33 203.7 -20.33 197.57 C-20.34 193.75 -20.34 189.92 -20.35 186.1 C-20.37 175.5 -20.39 164.9 -20.39 154.3 C-20.39 153.62 -20.39 152.94 -20.39 152.24 C-20.39 150.87 -20.39 149.5 -20.39 148.12 C-20.39 147.44 -20.39 146.76 -20.39 146.06 C-20.39 145.03 -20.39 145.03 -20.39 143.99 C-20.4 132.92 -20.42 121.86 -20.46 110.79 C-20.5 99.42 -20.52 88.06 -20.52 76.69 C-20.52 70.31 -20.53 63.93 -20.56 57.55 C-20.58 51.55 -20.59 45.55 -20.57 39.55 C-20.57 37.34 -20.57 35.14 -20.59 32.94 C-20.61 29.93 -20.6 26.93 -20.58 23.92 C-20.6 23.05 -20.61 22.18 -20.62 21.29 C-20.54 15.12 -18.84 11.07 -14.97 6.26 C-10.16 1.81 -6.56 0.01 0 0 Z " fill="#4D76FE" transform="translate(66.96715927124023,50.7399377822876)"/>
<path d="M0 0 C1.84 -0.01 1.84 -0.01 3.72 -0.02 C5.09 -0.02 6.46 -0.02 7.82 -0.01 C9.27 -0.02 10.72 -0.02 12.17 -0.03 C16.16 -0.04 20.15 -0.05 24.14 -0.05 C28.44 -0.05 32.74 -0.06 37.04 -0.07 C46.44 -0.09 55.85 -0.1 65.25 -0.11 C71.13 -0.11 77 -0.12 82.87 -0.12 C99.12 -0.14 115.38 -0.16 131.63 -0.16 C132.67 -0.16 133.71 -0.16 134.79 -0.16 C136.89 -0.16 139 -0.16 141.11 -0.16 C142.16 -0.17 143.21 -0.17 144.29 -0.17 C145.86 -0.17 145.86 -0.17 147.46 -0.17 C164.45 -0.17 181.44 -0.2 198.43 -0.23 C215.87 -0.27 233.3 -0.29 250.74 -0.29 C260.54 -0.29 270.33 -0.3 280.12 -0.33 C288.46 -0.35 296.8 -0.36 305.13 -0.35 C309.39 -0.34 313.64 -0.34 317.9 -0.36 C321.79 -0.38 325.69 -0.38 329.58 -0.36 C330.99 -0.36 332.4 -0.36 333.81 -0.38 C341.79 -0.45 347.9 -0.23 354.03 5.26 C357.7 9.22 360.28 12.87 360.29 18.35 C360.3 19.57 360.3 19.57 360.31 20.81 C360.31 21.7 360.31 22.58 360.31 23.49 C360.31 24.44 360.32 25.39 360.32 26.36 C360.34 29.53 360.34 32.71 360.34 35.88 C360.35 38.16 360.36 40.43 360.36 42.7 C360.39 48.89 360.4 55.07 360.4 61.25 C360.4 65.11 360.41 68.97 360.42 72.83 C360.44 83.53 360.45 94.23 360.46 104.92 C360.46 105.61 360.46 106.29 360.46 106.99 C360.46 108.38 360.46 109.77 360.46 111.16 C360.46 111.85 360.46 112.53 360.46 113.24 C360.46 114.28 360.46 114.28 360.46 115.33 C360.46 126.5 360.49 137.67 360.53 148.84 C360.56 160.31 360.58 171.78 360.58 183.25 C360.59 189.69 360.59 196.13 360.62 202.57 C360.65 208.63 360.65 214.69 360.63 220.74 C360.63 222.97 360.64 225.19 360.66 227.41 C360.68 230.45 360.67 233.48 360.65 236.52 C360.66 237.39 360.67 238.27 360.69 239.17 C360.6 245.33 358.98 249.5 355.03 254.26 C349.47 258.76 344 260.51 336.9 260.52 C335.68 260.52 334.47 260.53 333.21 260.54 C331.87 260.53 330.53 260.53 329.19 260.53 C327.76 260.53 326.33 260.54 324.9 260.54 C320.97 260.55 317.04 260.55 313.12 260.55 C308.88 260.55 304.64 260.56 300.41 260.57 C292.11 260.59 283.81 260.59 275.51 260.59 C268.76 260.6 262.01 260.6 255.27 260.61 C236.14 260.62 217.02 260.63 197.89 260.63 C196.34 260.63 196.34 260.63 194.77 260.63 C193.73 260.63 192.7 260.63 191.64 260.63 C174.9 260.63 158.17 260.65 141.44 260.68 C124.26 260.71 107.08 260.72 89.9 260.72 C80.25 260.72 70.6 260.72 60.96 260.74 C52.75 260.76 44.53 260.77 36.32 260.75 C32.13 260.75 27.94 260.75 23.76 260.76 C19.92 260.78 16.08 260.78 12.24 260.76 C10.86 260.76 9.47 260.76 8.09 260.77 C-0.68 260.84 -7.13 260.44 -13.99 254.51 C-14.44 253.96 -14.88 253.4 -15.34 252.82 C-15.8 252.27 -16.27 251.71 -16.74 251.14 C-20.19 245.85 -20.26 241.11 -20.24 234.98 C-20.25 233.57 -20.25 233.57 -20.26 232.14 C-20.27 228.99 -20.27 225.85 -20.27 222.71 C-20.28 220.45 -20.29 218.2 -20.3 215.94 C-20.32 209.82 -20.33 203.7 -20.33 197.57 C-20.34 193.75 -20.34 189.92 -20.35 186.1 C-20.37 175.5 -20.39 164.9 -20.39 154.3 C-20.39 153.62 -20.39 152.94 -20.39 152.24 C-20.39 150.87 -20.39 149.5 -20.39 148.12 C-20.39 147.44 -20.39 146.76 -20.39 146.06 C-20.39 145.03 -20.39 145.03 -20.39 143.99 C-20.4 132.92 -20.42 121.86 -20.46 110.79 C-20.5 99.42 -20.52 88.06 -20.52 76.69 C-20.52 70.31 -20.53 63.93 -20.56 57.55 C-20.58 51.55 -20.59 45.55 -20.57 39.55 C-20.57 37.34 -20.57 35.14 -20.59 32.94 C-20.61 29.93 -20.6 26.93 -20.58 23.92 C-20.6 23.05 -20.61 22.18 -20.62 21.29 C-20.54 15.12 -18.84 11.07 -14.97 6.26 C-10.16 1.81 -6.56 0.01 0 0 Z M-4.97 17.26 C-5.17 20.21 -5.24 23.07 -5.22 26.03 C-5.22 26.95 -5.23 27.87 -5.23 28.81 C-5.24 31.91 -5.23 35.01 -5.23 38.11 C-5.23 40.32 -5.23 42.54 -5.24 44.75 C-5.25 50.78 -5.24 56.8 -5.24 62.83 C-5.23 69.13 -5.24 75.42 -5.24 81.71 C-5.24 92.96 -5.24 104.22 -5.23 115.47 C-5.22 125.67 -5.22 135.88 -5.23 146.09 C-5.24 157.93 -5.24 169.78 -5.24 181.62 C-5.23 187.89 -5.23 194.17 -5.24 200.44 C-5.25 206.34 -5.24 212.23 -5.23 218.13 C-5.23 220.3 -5.23 222.47 -5.23 224.64 C-5.24 227.59 -5.23 230.54 -5.22 233.49 C-5.23 234.36 -5.23 235.23 -5.23 236.12 C-5.41 240.67 -5.41 240.67 -2.97 244.26 C-0.52 244.78 -0.52 244.78 2.03 244.26 C3.91 242.51 3.91 242.51 5.36 240.04 C5.96 239.12 6.56 238.2 7.17 237.26 C7.79 236.27 8.4 235.28 9.03 234.26 C9.65 233.28 10.26 232.31 10.9 231.3 C12.86 228.16 14.79 224.99 16.72 221.82 C18.14 219.5 19.56 217.18 20.98 214.87 C21.33 214.29 21.68 213.72 22.04 213.14 C25.01 208.28 28.04 203.45 31.1 198.64 C35.54 191.63 39.95 184.61 44.35 177.57 C44.98 176.56 45.61 175.55 46.26 174.51 C47.54 172.46 48.83 170.4 50.11 168.34 C53.87 162.32 57.64 156.29 61.4 150.27 C64.56 145.21 67.73 140.15 70.89 135.08 C74.01 130.09 77.13 125.09 80.26 120.1 C82 117.32 83.73 114.53 85.47 111.74 C86.53 110.04 87.59 108.34 88.66 106.64 C89.37 105.49 89.37 105.49 90.09 104.32 C95.48 95.73 100.77 89.7 110.41 85.95 C119.18 84.28 127.09 84.89 135.03 89.26 C141.04 93.68 145.01 98.64 148.78 105.01 C149.82 106.71 150.86 108.41 151.9 110.11 C152.42 110.97 152.95 111.83 153.48 112.71 C155.88 116.66 158.37 120.55 160.85 124.45 C167.95 135.69 174.99 146.98 182.03 158.26 C184.7 162.53 187.37 166.8 190.03 171.07 C190.63 172.03 191.23 172.99 191.85 173.98 C193 175.82 194.15 177.66 195.3 179.49 C196.52 181.45 197.74 183.41 198.95 185.37 C199.58 186.37 200.2 187.37 200.85 188.4 C201.69 189.76 201.69 189.76 202.55 191.15 C203.86 193.37 203.86 193.37 206.03 194.26 C206.35 193.76 206.67 193.26 206.99 192.74 C209.59 188.62 212.19 184.5 214.79 180.39 C216.74 177.32 218.66 174.24 220.55 171.13 C226.08 162.1 231.54 154.53 242.03 151.26 C250.35 149.94 259.62 150.15 266.92 154.62 C275.81 161.51 280.92 171.33 286.58 180.84 C288.92 184.73 291.35 188.56 293.78 192.39 C297.75 198.64 301.69 204.9 305.61 211.18 C306.89 213.23 308.17 215.27 309.47 217.3 C312.52 222.13 315.45 226.96 318.13 232.01 C322.15 240.36 322.15 240.36 328.96 246.1 C333.48 247.05 337.61 246.61 342.03 245.26 C343.77 244 343.77 244 345.03 242.26 C345.33 239.23 345.43 236.4 345.41 233.37 C345.41 232.45 345.42 231.53 345.42 230.58 C345.43 227.49 345.42 224.39 345.41 221.3 C345.41 219.08 345.41 216.87 345.42 214.66 C345.43 208.63 345.42 202.61 345.4 196.59 C345.39 190.3 345.4 184 345.4 177.71 C345.4 167.15 345.39 156.58 345.37 146.01 C345.35 135.13 345.34 124.26 345.35 113.38 C345.36 100.28 345.35 87.17 345.34 74.07 C345.33 69.07 345.33 64.06 345.34 59.05 C345.34 53.16 345.33 47.26 345.31 41.37 C345.31 39.2 345.31 37.04 345.31 34.87 C345.31 31.92 345.31 28.97 345.29 26.02 C345.3 25.15 345.3 24.29 345.3 23.39 C345.47 18.85 345.47 18.85 343.03 15.26 C340.45 14.96 340.45 14.96 337.39 15.01 C336.18 15 334.97 15 333.73 14.99 C332.38 15 331.02 15 329.67 15.01 C328.24 15 326.82 15 325.39 15 C321.45 14.99 317.51 14.99 313.58 15 C309.34 15 305.1 15 300.86 14.99 C292.55 14.98 284.23 14.98 275.92 14.99 C269.17 14.99 262.42 14.99 255.67 14.99 C254.71 14.99 253.75 14.99 252.76 14.99 C250.81 14.99 248.86 14.99 246.91 14.99 C228.62 14.98 210.33 14.99 192.03 15 C176.32 15.01 160.61 15.01 144.9 15 C126.68 14.99 108.45 14.98 90.23 14.99 C88.28 14.99 86.34 14.99 84.4 14.99 C83.44 14.99 82.49 14.99 81.5 14.99 C74.76 15 68.01 14.99 61.26 14.99 C53.04 14.98 44.82 14.98 36.61 14.99 C32.41 15 28.21 15 24.02 14.99 C20.18 14.99 16.34 14.99 12.51 15 C11.11 15 9.72 15 8.33 15 C6.44 14.99 4.56 15 2.68 15.01 C1.63 15.01 0.58 15.01 -0.5 15.01 C-3.14 15.02 -3.14 15.02 -4.97 17.26 Z " fill="#2A1B82" transform="translate(66.96715927124023,50.7399377822876)"/>
<path d="M0 0 C1.79 -0 3.57 -0.01 5.36 -0.02 C10.25 -0.03 15.15 -0.03 20.04 -0.02 C25.33 -0.01 30.61 -0.03 35.9 -0.04 C46.24 -0.05 56.59 -0.06 66.94 -0.05 C75.35 -0.05 83.76 -0.05 92.17 -0.05 C93.97 -0.05 93.97 -0.05 95.8 -0.05 C98.23 -0.06 100.67 -0.06 103.1 -0.06 C125.91 -0.07 148.72 -0.07 171.53 -0.06 C192.39 -0.05 213.25 -0.06 234.11 -0.08 C255.54 -0.11 276.97 -0.12 298.39 -0.11 C310.42 -0.11 322.45 -0.11 334.48 -0.13 C344.71 -0.14 354.95 -0.14 365.19 -0.12 C370.41 -0.12 375.64 -0.11 380.86 -0.13 C385.64 -0.14 390.43 -0.14 395.21 -0.12 C396.94 -0.12 398.67 -0.12 400.39 -0.13 C411.34 -0.19 421.92 -0.08 430.49 7.64 C438.4 16.49 438.7 25.76 438.67 37.16 C438.67 38.95 438.67 38.95 438.68 40.77 C438.68 44.08 438.67 47.38 438.67 50.69 C438.67 54.25 438.67 57.82 438.67 61.39 C438.67 67.56 438.66 73.74 438.66 79.91 C438.65 88.84 438.65 97.77 438.65 106.7 C438.64 121.19 438.64 135.68 438.63 150.17 C438.62 164.24 438.61 178.32 438.61 192.39 C438.61 193.69 438.61 193.69 438.61 195.02 C438.61 199.37 438.6 203.72 438.6 208.08 C438.59 244.18 438.58 280.28 438.55 316.39 C439.16 316.25 439.77 316.11 440.4 315.96 C441.2 315.78 442 315.6 442.83 315.41 C444.02 315.13 444.02 315.13 445.24 314.86 C451.61 313.57 456.87 314.4 462.55 317.39 C467.47 320.71 470.17 323.89 472.55 329.39 C473.91 339.43 471.61 348.82 468.92 358.42 C468.52 359.87 468.13 361.32 467.74 362.77 C466.69 366.67 465.62 370.56 464.54 374.46 C463.4 378.56 462.29 382.67 461.17 386.78 C459.77 391.94 458.36 397.11 456.95 402.27 C453.71 414.07 450.54 425.89 447.42 437.73 C445.99 443.11 444.56 448.49 443.13 453.88 C441.98 458.21 440.83 462.54 439.69 466.88 C438.62 470.95 437.53 475.03 436.44 479.1 C436.04 480.6 435.65 482.09 435.26 483.59 C434.72 485.64 434.17 487.69 433.62 489.74 C433.31 490.88 433.01 492.03 432.7 493.21 C430.34 499.75 426.24 504.53 420.55 508.39 C412.78 511.44 406.72 510.73 399.08 507.95 C392.96 504.17 389.42 497.88 386.28 491.59 C385.92 490.88 385.55 490.16 385.17 489.42 C384.02 487.17 382.88 484.9 381.74 482.64 C380.96 481.1 380.18 479.57 379.39 478.04 C378.65 476.58 377.9 475.12 377.16 473.65 C376.64 472.63 376.64 472.63 376.1 471.58 C374.74 468.87 373.51 466.27 372.55 463.39 C371.73 463.39 370.9 463.39 370.04 463.39 C320.99 463.51 271.93 463.59 222.87 463.64 C216.98 463.65 211.09 463.66 205.19 463.66 C204.02 463.66 202.85 463.66 201.64 463.67 C182.65 463.69 163.66 463.73 144.68 463.77 C125.19 463.82 105.71 463.85 86.22 463.86 C74.2 463.86 62.18 463.89 50.16 463.93 C41.91 463.95 33.67 463.96 25.42 463.96 C20.67 463.95 15.91 463.96 11.15 463.98 C6.8 464.01 2.44 464.01 -1.92 463.99 C-3.49 463.99 -5.07 464 -6.64 464.01 C-16.4 464.1 -24.86 463.55 -32.35 456.63 C-37.81 450.88 -39.82 444.77 -39.83 436.93 C-39.83 436.21 -39.84 435.49 -39.84 434.74 C-39.85 432.33 -39.84 429.92 -39.83 427.51 C-39.84 425.76 -39.84 424.01 -39.85 422.26 C-39.87 417.46 -39.86 412.66 -39.85 407.86 C-39.85 402.68 -39.86 397.5 -39.87 392.32 C-39.89 382.18 -39.89 372.03 -39.88 361.89 C-39.88 353.64 -39.88 345.39 -39.89 337.15 C-39.89 335.98 -39.89 334.8 -39.89 333.59 C-39.89 331.21 -39.89 328.83 -39.89 326.44 C-39.91 304.09 -39.9 281.73 -39.89 259.38 C-39.88 238.92 -39.89 218.47 -39.92 198.02 C-39.94 177.02 -39.95 156.02 -39.94 135.02 C-39.94 123.23 -39.94 111.44 -39.96 99.65 C-39.98 89.61 -39.98 79.57 -39.96 69.54 C-39.95 64.42 -39.95 59.29 -39.96 54.17 C-39.98 49.48 -39.97 44.8 -39.95 40.11 C-39.95 38.41 -39.95 36.72 -39.96 35.02 C-40.02 25.17 -39.87 16.85 -33.4 8.86 C-32.7 8.25 -31.99 7.64 -31.26 7.01 C-30.56 6.39 -29.87 5.76 -29.15 5.11 C-20.08 -0.67 -10.32 -0.04 0 0 Z M-23.45 21.39 C-24.9 24.3 -24.57 26.85 -24.58 30.11 C-24.58 30.82 -24.58 31.52 -24.58 32.24 C-24.59 34.62 -24.59 37 -24.59 39.38 C-24.59 41.09 -24.59 42.81 -24.6 44.52 C-24.6 49.25 -24.61 53.97 -24.61 58.7 C-24.61 63.79 -24.62 68.88 -24.62 73.97 C-24.64 85.11 -24.64 96.25 -24.65 107.4 C-24.65 114.35 -24.65 121.3 -24.66 128.25 C-24.67 147.49 -24.68 166.72 -24.68 185.96 C-24.68 187.19 -24.68 188.42 -24.68 189.69 C-24.69 190.93 -24.69 192.16 -24.69 193.44 C-24.69 195.94 -24.69 198.44 -24.69 200.94 C-24.69 202.18 -24.69 203.43 -24.69 204.71 C-24.69 224.82 -24.71 244.94 -24.73 265.06 C-24.76 285.7 -24.77 306.35 -24.77 326.99 C-24.77 338.58 -24.78 350.18 -24.79 361.77 C-24.81 371.65 -24.81 381.52 -24.81 391.39 C-24.8 396.43 -24.8 401.47 -24.82 406.51 C-24.83 411.12 -24.83 415.73 -24.82 420.35 C-24.82 422.02 -24.82 423.69 -24.83 425.36 C-24.84 427.62 -24.83 429.89 -24.82 432.16 C-24.82 433.42 -24.82 434.68 -24.82 435.98 C-24.28 440.87 -23.03 444.1 -19.17 447.24 C-15.89 448.62 -13.45 448.76 -9.88 448.76 C-8.91 448.76 -8.91 448.76 -7.91 448.77 C-5.74 448.78 -3.56 448.76 -1.38 448.75 C0.19 448.75 1.77 448.75 3.35 448.76 C7.68 448.76 12.01 448.75 16.34 448.74 C21.02 448.72 25.69 448.73 30.36 448.73 C38.45 448.73 46.55 448.72 54.64 448.7 C66.34 448.68 78.05 448.67 89.75 448.67 C108.74 448.66 127.72 448.64 146.71 448.61 C165.16 448.59 183.6 448.57 202.05 448.55 C203.75 448.55 203.75 448.55 205.49 448.55 C211.19 448.55 216.9 448.54 222.6 448.54 C269.92 448.51 317.24 448.45 364.55 448.39 C363.26 444.39 361.89 440.88 359.74 437.26 C359.02 436.02 359.02 436.02 358.28 434.75 C354.75 429.92 349.88 427.33 344.62 424.7 C343.95 424.36 343.29 424.02 342.6 423.67 C341.18 422.95 339.75 422.23 338.33 421.51 C334.59 419.62 330.87 417.71 327.14 415.81 C326.4 415.43 325.66 415.05 324.9 414.66 C316.17 410.18 307.56 405.49 298.98 400.72 C297.2 399.74 295.4 398.77 293.6 397.81 C292.61 397.28 291.63 396.75 290.61 396.21 C289.25 395.49 289.25 395.49 287.87 394.75 C282.62 391.66 280.46 387.01 278.55 381.39 C277.73 374.11 279.54 368.62 283.78 362.66 C289.54 356.66 298.77 355.34 306.55 353.39 C307.35 353.19 308.14 352.99 308.95 352.78 C312.24 351.96 315.53 351.14 318.83 350.33 C324.95 348.83 331 347.15 337.05 345.39 C343.86 343.41 350.67 341.57 357.55 339.89 C365.35 337.98 373.05 335.86 380.76 333.62 C388.72 331.32 396.73 329.2 404.76 327.12 C408.29 326.19 411.83 325.25 415.36 324.31 C416.05 324.12 416.75 323.94 417.46 323.75 C419.16 323.29 420.86 322.84 422.55 322.39 C422.67 284.4 422.76 246.41 422.81 208.42 C422.81 203.94 422.82 199.45 422.83 194.97 C422.83 194.08 422.83 193.19 422.83 192.27 C422.85 177.81 422.89 163.35 422.94 148.89 C422.99 134.06 423.01 119.23 423.02 104.39 C423.03 95.24 423.05 86.08 423.09 76.93 C423.12 70.65 423.13 64.38 423.12 58.1 C423.12 54.48 423.12 50.86 423.15 47.24 C423.18 43.31 423.17 39.39 423.15 35.46 C423.17 34.31 423.18 33.17 423.2 31.99 C423.19 25.37 423.19 25.37 420.14 19.7 C416.09 16.08 413.94 16.26 408.56 16.25 C407.46 16.25 407.46 16.25 406.34 16.24 C403.87 16.23 401.39 16.23 398.91 16.23 C397.13 16.23 395.35 16.23 393.56 16.22 C388.64 16.21 383.72 16.2 378.8 16.2 C373.5 16.19 368.2 16.18 362.9 16.17 C350.1 16.15 337.29 16.13 324.48 16.12 C320.87 16.11 317.25 16.11 313.64 16.11 C291.2 16.08 268.77 16.06 246.33 16.05 C241.13 16.04 235.93 16.04 230.73 16.04 C229.44 16.04 228.15 16.04 226.82 16.04 C205.87 16.02 184.93 15.99 163.99 15.95 C142.5 15.91 121.01 15.88 99.53 15.88 C87.46 15.87 75.39 15.86 63.32 15.83 C53.04 15.8 42.76 15.79 32.48 15.8 C27.24 15.81 21.99 15.8 16.75 15.78 C11.94 15.76 7.14 15.76 2.34 15.78 C0.61 15.78 -1.13 15.77 -2.87 15.76 C-5.23 15.74 -7.59 15.75 -9.95 15.77 C-11.26 15.77 -12.58 15.77 -13.93 15.77 C-18.54 16.58 -20.16 18.11 -23.45 21.39 Z " fill="#291A80" transform="translate(39.446624755859375,0.6123199462890625)"/>
<path d="M0 0 C8.39 3.84 12.03 11.49 16.73 19.09 C18.08 21.26 19.43 23.43 20.78 25.61 C21.47 26.71 22.15 27.82 22.86 28.97 C26.03 34.08 29.22 39.17 32.41 44.27 C33.66 46.27 34.91 48.26 36.15 50.25 C36.77 51.24 37.39 52.23 38.03 53.25 C39.94 56.32 41.86 59.38 43.77 62.45 C49.94 72.33 56.12 82.21 62.36 92.05 C67.04 99.46 71.68 106.89 76.32 114.32 C79.36 119.2 82.41 124.07 85.5 128.92 C86.06 129.79 86.61 130.67 87.19 131.57 C88.23 133.21 89.27 134.84 90.32 136.47 C91.01 137.56 91.01 137.56 91.72 138.67 C92.12 139.3 92.52 139.92 92.94 140.57 C93.91 142.27 93.91 142.27 94.91 145.27 C29.24 145.27 -36.43 145.27 -104.09 145.27 C-102.74 141.9 -101.58 139.22 -99.76 136.18 C-99.3 135.41 -98.83 134.64 -98.36 133.84 C-97.85 133.02 -97.35 132.19 -96.84 131.34 C-96.04 130.02 -96.04 130.02 -95.23 128.68 C-90.19 120.37 -84.97 112.17 -79.73 103.99 C-75.93 98.05 -72.19 92.07 -68.46 86.09 C-64.02 78.97 -59.57 71.86 -55.09 64.77 C-50.63 57.73 -46.19 50.66 -41.77 43.59 C-40.84 42.09 -40.84 42.09 -39.89 40.57 C-36.56 35.25 -33.25 29.93 -29.97 24.59 C-29.3 23.5 -28.63 22.41 -27.94 21.29 C-26.65 19.2 -25.37 17.12 -24.1 15.03 C-18.64 6.21 -11.93 -4.15 0 0 Z " fill="#8BDBFA" transform="translate(191.0859375,150.7265625)"/>
<path d="M0 0 C0.99 0.33 1.98 0.66 3 1 C-7.85 11.99 -18.71 22.96 -29.6 33.91 C-34.65 38.99 -39.7 44.08 -44.73 49.19 C-49.12 53.63 -53.52 58.07 -57.93 62.5 C-60.27 64.84 -62.6 67.19 -64.91 69.55 C-67.5 72.18 -70.11 74.79 -72.72 77.4 C-73.49 78.19 -74.26 78.98 -75.05 79.79 C-76.12 80.85 -76.12 80.85 -77.21 81.93 C-77.82 82.55 -78.44 83.17 -79.07 83.81 C-81 85 -81 85 -83.53 84.79 C-86.93 83.7 -89.99 82.09 -93.12 80.39 C-93.8 80.02 -94.49 79.65 -95.2 79.28 C-97.43 78.09 -99.65 76.89 -101.88 75.69 C-104.18 74.45 -106.49 73.22 -108.79 71.99 C-110.33 71.17 -111.87 70.34 -113.41 69.52 C-120.91 65.5 -128.45 61.58 -136.02 57.71 C-148.49 51.26 -148.49 51.26 -150.19 47.06 C-149.98 43.67 -149.25 42.5 -146.8 40.21 C-142.88 37.58 -138.16 36.79 -133.62 35.69 C-132.49 35.4 -131.36 35.11 -130.19 34.81 C-127.74 34.18 -125.3 33.57 -122.85 32.96 C-116.95 31.49 -111.06 29.97 -105.18 28.45 C-103.18 27.94 -101.19 27.43 -99.2 26.92 C-90.95 24.8 -82.75 22.54 -74.57 20.15 C-67.15 18 -59.67 16.16 -52.17 14.32 C-43.89 12.28 -35.73 9.92 -27.56 7.48 C-20.75 5.46 -13.93 3.69 -7 2.15 C-3.4 1.37 -3.4 1.37 0 0 Z " fill="#5DACFD" transform="translate(482,332)"/>
<path d="M0 0 C1.26 3.78 0.57 5.5 -0.44 9.34 C-0.6 9.96 -0.77 10.59 -0.93 11.24 C-1.47 13.28 -2.02 15.33 -2.56 17.38 C-2.94 18.79 -3.31 20.21 -3.68 21.63 C-5.98 30.35 -8.39 39.04 -10.92 47.7 C-12.82 54.26 -14.49 60.86 -16.11 67.49 C-17.58 73.46 -19.22 79.35 -20.94 85.25 C-23.14 92.79 -25.13 100.37 -27 108 C-29.54 118.36 -32.37 128.62 -35.37 138.85 C-35.97 140.88 -36.53 142.93 -37.09 144.97 C-38.43 149.44 -38.43 149.44 -41 151 C-43.94 151.44 -43.94 151.44 -47 151 C-50.58 148.05 -52.4 144.71 -54.47 140.6 C-54.79 139.98 -55.1 139.35 -55.43 138.71 C-56.11 137.38 -56.78 136.04 -57.46 134.7 C-59.22 131.19 -61.01 127.69 -62.8 124.19 C-63.15 123.49 -63.51 122.79 -63.88 122.07 C-67.51 114.96 -71.33 107.94 -75.19 100.95 C-76.47 98.64 -77.74 96.32 -79 94 C-79.62 92.9 -79.62 92.9 -80.25 91.77 C-83.06 86.56 -83.06 86.56 -82.8 84 C-81.83 81.57 -80.62 80.25 -78.77 78.41 C-78.08 77.71 -77.38 77.02 -76.67 76.3 C-75.91 75.55 -75.15 74.79 -74.36 74.02 C-73.56 73.22 -72.76 72.42 -71.94 71.59 C-69.29 68.95 -66.63 66.31 -63.96 63.67 C-62.13 61.84 -60.29 60.01 -58.45 58.17 C-54.11 53.84 -49.76 49.51 -45.41 45.19 C-40.45 40.27 -35.5 35.34 -30.56 30.4 C-20.38 20.26 -10.19 10.13 0 0 Z " fill="#5DAEFE" transform="translate(494,344)"/>
<path d="M0 0 C6.98 5.08 11.23 13.77 15.69 21 C17.02 23.14 18.34 25.28 19.67 27.42 C20.35 28.51 21.02 29.6 21.72 30.72 C24.94 35.93 28.19 41.12 31.44 46.31 C32.36 47.79 32.36 47.79 33.3 49.3 C36.3 54.1 39.31 58.89 42.36 63.66 C42.92 64.54 43.48 65.42 44.06 66.33 C45.12 67.99 46.18 69.64 47.25 71.29 C47.71 72.02 48.17 72.74 48.65 73.49 C49.06 74.12 49.47 74.76 49.89 75.41 C50.75 77 50.75 77 50.75 79 C41.44 79.47 32.14 79.82 22.82 80.04 C18.49 80.14 14.17 80.28 9.84 80.51 C-18.04 81.94 -18.04 81.94 -24.94 77.12 C-29.09 72.53 -31.3 67.41 -33.26 61.6 C-34.9 57.28 -37.45 53.58 -40 49.75 C-40.83 48.43 -41.66 47.12 -42.48 45.8 C-43.07 44.87 -43.65 43.95 -44.25 43 C-40.22 35.39 -35.89 28.06 -31.25 20.81 C-30.66 19.88 -30.07 18.95 -29.46 17.99 C-15.03 -4.63 -15.03 -4.63 0 0 Z " fill="#8ADAFA" transform="translate(325.25,217)"/>
<path d="M0 0 C8.55 6.06 14.23 13.98 16.38 24.31 C17.39 33.5 14.94 41.76 10.44 49.75 C4.21 57.48 -2.86 63.06 -12.62 65.31 C-23.07 66.28 -31.76 65.7 -40.28 59.32 C-45.43 54.94 -49.65 50.42 -52.62 44.31 C-52.99 43.58 -53.35 42.85 -53.73 42.09 C-54.91 38.41 -54.97 34.89 -54.94 31.06 C-54.93 30.3 -54.93 29.55 -54.92 28.76 C-54.69 18.25 -51.34 11.13 -43.96 3.62 C-31.33 -7.88 -14.45 -8.93 0 0 Z " fill="#291B82" transform="translate(305.625,91.6875)"/>
<path d="M0 0 C0.95 -0.01 1.9 -0.01 2.89 -0.02 C6.08 -0.03 9.28 -0.02 12.48 -0.01 C14.77 -0.02 17.06 -0.02 19.35 -0.03 C25.57 -0.05 31.8 -0.04 38.02 -0.03 C44.53 -0.02 51.04 -0.03 57.54 -0.03 C69.17 -0.04 80.8 -0.03 92.43 -0.01 C102.98 0.01 113.52 0 124.07 -0.01 C136.31 -0.03 148.56 -0.04 160.8 -0.03 C167.28 -0.02 173.77 -0.02 180.25 -0.04 C186.34 -0.05 192.44 -0.04 198.53 -0.02 C200.77 -0.01 203.01 -0.01 205.25 -0.02 C208.3 -0.03 211.35 -0.02 214.4 0 C215.29 -0.01 216.19 -0.02 217.1 -0.03 C223.06 0.05 223.06 0.05 226.25 2.32 C228.41 5.57 228.31 7.7 227.7 11.51 C224.88 14.68 222.61 15.76 218.47 16.01 C216.75 16.03 215.04 16.03 213.32 16.02 C212.37 16.02 211.42 16.03 210.44 16.03 C207.26 16.05 204.08 16.04 200.9 16.03 C198.62 16.03 196.34 16.04 194.06 16.05 C187.87 16.07 181.67 16.06 175.48 16.05 C169 16.04 162.52 16.04 156.05 16.05 C144.48 16.06 132.9 16.05 121.33 16.03 C110.84 16.01 100.34 16.01 89.85 16.03 C77.66 16.05 65.48 16.06 53.29 16.05 C46.84 16.04 40.39 16.04 33.94 16.05 C27.87 16.06 21.81 16.06 15.75 16.03 C13.52 16.03 11.29 16.03 9.06 16.04 C6.03 16.05 2.99 16.04 -0.04 16.02 C-1.38 16.03 -1.38 16.03 -2.73 16.04 C-8.65 15.97 -8.65 15.97 -11.85 13.69 C-13.99 10.47 -13.84 8.28 -13.3 4.51 C-9.89 -0.63 -5.61 -0.06 0 0 Z " fill="#291A80" transform="translate(65.2996826171875,388.4920654296875)"/>
<path d="M0 0 C0.95 -0.01 1.9 -0.01 2.89 -0.02 C6.08 -0.03 9.28 -0.02 12.48 -0.01 C14.77 -0.02 17.06 -0.02 19.35 -0.03 C25.57 -0.05 31.8 -0.04 38.02 -0.03 C44.53 -0.02 51.04 -0.03 57.54 -0.03 C69.17 -0.04 80.8 -0.03 92.43 -0.01 C102.98 0.01 113.52 0 124.07 -0.01 C136.31 -0.03 148.56 -0.04 160.8 -0.03 C167.28 -0.02 173.77 -0.02 180.25 -0.04 C186.34 -0.05 192.44 -0.04 198.53 -0.02 C200.77 -0.01 203.01 -0.01 205.25 -0.02 C208.3 -0.03 211.35 -0.02 214.4 0 C215.29 -0.01 216.19 -0.02 217.1 -0.03 C223.06 0.05 223.06 0.05 226.25 2.32 C228.41 5.57 228.31 7.7 227.7 11.51 C224.88 14.68 222.61 15.76 218.47 16.01 C216.75 16.03 215.04 16.03 213.32 16.02 C212.37 16.02 211.42 16.03 210.44 16.03 C207.26 16.05 204.08 16.04 200.9 16.03 C198.62 16.03 196.34 16.04 194.06 16.05 C187.87 16.07 181.67 16.06 175.48 16.05 C169 16.04 162.52 16.04 156.05 16.05 C144.48 16.06 132.9 16.05 121.33 16.03 C110.84 16.01 100.34 16.01 89.85 16.03 C77.66 16.05 65.48 16.06 53.29 16.05 C46.84 16.04 40.39 16.04 33.94 16.05 C27.87 16.06 21.81 16.06 15.75 16.03 C13.52 16.03 11.29 16.03 9.06 16.04 C6.03 16.05 2.99 16.04 -0.04 16.02 C-1.38 16.03 -1.38 16.03 -2.73 16.04 C-8.65 15.97 -8.65 15.97 -11.85 13.69 C-13.99 10.47 -13.84 8.28 -13.3 4.51 C-9.89 -0.63 -5.61 -0.06 0 0 Z " fill="#291A80" transform="translate(65.2996826171875,349.4920654296875)"/>
<path d="M0 0 C4.67 2.64 8.35 6.64 10.75 11.44 C10.9 13.68 10.97 15.94 11 18.19 C11.03 19.4 11.05 20.61 11.08 21.86 C10.65 26.55 9.26 29.77 6.1 33.27 C5.53 33.73 4.96 34.2 4.38 34.69 C3.81 35.17 3.25 35.65 2.66 36.14 C-2.93 39.93 -8.68 40.33 -15.25 39.44 C-20.93 37.21 -24.75 33.32 -28.25 28.44 C-30.17 22.69 -30.42 15.73 -28.38 9.98 C-22.5 -0.1 -10.98 -4.95 0 0 Z " fill="#F0E9EB" transform="translate(295.25,102.5625)"/>
<path d="M0 0 C1.17 -0 1.17 -0 2.36 -0.01 C4.01 -0.01 5.65 0.01 7.3 0.03 C9.81 0.07 12.31 0.05 14.82 0.03 C16.42 0.04 18.02 0.05 19.62 0.06 C20.37 0.06 21.12 0.05 21.89 0.05 C26.79 0.16 29.39 1.1 32.81 4.63 C33.74 7.62 33.27 9.42 32.81 12.63 C30.34 15.46 28.71 15.64 24.93 16.05 C23.37 16.08 21.81 16.1 20.25 16.1 C19.42 16.11 18.59 16.11 17.74 16.12 C15.99 16.13 14.24 16.13 12.5 16.13 C9.82 16.13 7.15 16.17 4.48 16.21 C2.78 16.22 1.08 16.22 -0.62 16.22 C-1.42 16.24 -2.22 16.26 -3.04 16.27 C-6.99 16.22 -8.78 16.02 -11.69 13.25 C-13.4 10.26 -13.95 9 -13.19 5.63 C-9.32 0.62 -6.06 -0.11 0 0 Z " fill="#291B83" transform="translate(358.1875,158.37109375)"/>
<path d="M0 0 C0.76 -0 1.52 -0 2.3 -0 C3.89 -0 5.49 0.01 7.09 0.03 C9.52 0.06 11.96 0.05 14.39 0.04 C15.95 0.04 17.51 0.05 19.06 0.06 C19.79 0.06 20.51 0.06 21.26 0.05 C25.65 0.14 28.59 0.69 32.03 3.5 C33.09 6.87 33.09 6.87 33.03 10.5 C31.56 13.18 31.56 13.18 29.03 15.5 C25.99 15.99 23.51 16.18 20.47 16.12 C19.23 16.13 19.23 16.13 17.96 16.13 C16.21 16.13 14.46 16.12 12.71 16.09 C10.04 16.06 7.37 16.07 4.7 16.09 C2.99 16.08 1.29 16.08 -0.41 16.06 C-1.6 16.07 -1.6 16.07 -2.82 16.08 C-6.39 16 -8.55 15.8 -11.47 13.68 C-13.69 10.44 -13.58 8.32 -12.97 4.5 C-9.06 0.29 -5.48 -0.09 0 0 Z " fill="#281B83" transform="translate(106.96875,93.50390625)"/>
</svg>
